<svg xmlns="http://www.w3.org/2000/svg" xmlns:xlink="http://www.w3.org/1999/xlink" width="1080" zoomAndPan="magnify" viewBox="0 0 810 1012.49997" height="1350" preserveAspectRatio="xMidYMid meet" version="1.0"><defs><g/><clipPath id="3d6f4b0150"><path d="M 0.652344 0.339844 L 382 0.339844 L 382 447.480469 L 0.652344 447.480469 Z M 0.652344 0.339844 " clip-rule="nonzero"/></clipPath><clipPath id="d92779826c"><rect x="0" width="382" y="0" height="448"/></clipPath><clipPath id="5355497000"><path d="M 288 330 L 539.425781 330 L 539.425781 391 L 288 391 Z M 288 330 " clip-rule="nonzero"/></clipPath><clipPath id="d14a6a6889"><rect x="0" width="252" y="0" height="61"/></clipPath><clipPath id="c8fab05fb3"><rect x="0" width="540" y="0" height="448"/></clipPath></defs><g transform="matrix(1, 0, 0, 1, 137, 282)"><g clip-path="url(#c8fab05fb3)"><g clip-path="url(#3d6f4b0150)"><g><g clip-path="url(#d92779826c)"><g fill="#ffffff" fill-opacity="0.302"><g transform="translate(9.908148, 341.077255)"><g><path d="M 221.640625 -117.109375 C 220.441406 -117.109375 219.84375 -117.554688 219.84375 -118.453125 C 219.84375 -119.347656 220.441406 -119.796875 221.640625 -119.796875 C 235.097656 -119.796875 247.8125 -122.710938 259.78125 -128.546875 C 271.75 -134.378906 282.289062 -142.082031 291.40625 -151.65625 C 300.53125 -161.226562 307.707031 -171.769531 312.9375 -183.28125 C 318.175781 -194.800781 320.796875 -206.09375 320.796875 -217.15625 C 320.796875 -222.84375 319.972656 -228.300781 318.328125 -233.53125 C 316.679688 -238.769531 314.066406 -243.628906 310.484375 -248.109375 C 296.421875 -237.941406 283.484375 -224.707031 271.671875 -208.40625 C 259.859375 -192.101562 248.414062 -174.378906 237.34375 -155.234375 C 226.28125 -136.097656 214.691406 -117.109375 202.578125 -98.265625 C 190.460938 -79.421875 177 -62.144531 162.1875 -46.4375 C 147.382812 -30.726562 130.484375 -18.085938 111.484375 -8.515625 C 92.492188 1.046875 70.4375 5.828125 45.3125 5.828125 C 28.5625 5.828125 16.894531 2.835938 10.3125 -3.140625 C 3.738281 -9.117188 0.453125 -15.398438 0.453125 -21.984375 C 0.453125 -28.265625 2.769531 -33.722656 7.40625 -38.359375 C 12.039062 -42.992188 16.898438 -45.3125 21.984375 -45.3125 C 24.671875 -45.3125 26.910156 -44.5625 28.703125 -43.0625 C 30.503906 -41.570312 31.40625 -39.628906 31.40625 -37.234375 C 31.40625 -33.046875 29.609375 -29.679688 26.015625 -27.140625 C 22.429688 -24.597656 18.84375 -22.28125 15.25 -20.1875 C 11.664062 -18.09375 9.875 -15.101562 9.875 -11.21875 C 9.875 -7.332031 13.015625 -3.96875 19.296875 -1.125 C 25.578125 1.71875 34.25 3.140625 45.3125 3.140625 C 64.15625 3.140625 81.578125 -1.644531 97.578125 -11.21875 C 113.585938 -20.789062 128.617188 -33.425781 142.671875 -49.125 C 156.734375 -64.832031 170.34375 -82.179688 183.5 -101.171875 C 196.664062 -120.171875 209.753906 -139.164062 222.765625 -158.15625 C 235.773438 -177.144531 249.234375 -194.789062 263.140625 -211.09375 C 277.054688 -227.394531 291.9375 -240.632812 307.78125 -250.8125 C 302.101562 -257.09375 293.878906 -262.175781 283.109375 -266.0625 C 272.335938 -269.945312 259.03125 -271.890625 243.1875 -271.890625 C 215.664062 -271.890625 190.984375 -267.773438 169.140625 -259.546875 C 147.304688 -251.328125 128.6875 -240.710938 113.28125 -227.703125 C 97.882812 -214.691406 85.847656 -200.859375 77.171875 -186.203125 C 68.492188 -171.546875 63.40625 -157.707031 61.90625 -144.6875 C 60.414062 -131.675781 62.882812 -121.054688 69.3125 -112.828125 C 75.75 -104.609375 86.296875 -100.5 100.953125 -100.5 C 114.410156 -100.5 126.972656 -103.5625 138.640625 -109.6875 C 150.304688 -115.820312 160.625 -123.675781 169.59375 -133.25 C 178.570312 -142.820312 185.976562 -152.914062 191.8125 -163.53125 C 197.644531 -174.15625 201.378906 -184.253906 203.015625 -193.828125 C 204.660156 -203.398438 203.835938 -211.25 200.546875 -217.375 C 197.265625 -223.507812 191.132812 -226.578125 182.15625 -226.578125 C 180.957031 -226.578125 180.359375 -226.875 180.359375 -227.46875 C 180.359375 -228.070312 180.957031 -228.375 182.15625 -228.375 C 192.925781 -228.375 200.628906 -225.234375 205.265625 -218.953125 C 209.898438 -212.671875 211.769531 -204.519531 210.875 -194.5 C 209.976562 -184.476562 206.757812 -173.929688 201.21875 -162.859375 C 195.6875 -151.796875 188.207031 -141.253906 178.78125 -131.234375 C 169.363281 -121.210938 158.222656 -113.0625 145.359375 -106.78125 C 132.503906 -100.5 118.445312 -97.359375 103.1875 -97.359375 C 87.34375 -97.359375 75.828125 -101.617188 68.640625 -110.140625 C 61.460938 -118.671875 58.320312 -129.664062 59.21875 -143.125 C 60.125 -156.582031 64.910156 -170.863281 73.578125 -185.96875 C 82.253906 -201.070312 94.519531 -215.351562 110.375 -228.8125 C 126.226562 -242.28125 145.296875 -253.273438 167.578125 -261.796875 C 189.859375 -270.328125 215.0625 -274.59375 243.1875 -274.59375 C 259.03125 -274.59375 272.5625 -272.722656 283.78125 -268.984375 C 295 -265.242188 304.195312 -260.082031 311.375 -253.5 C 328.726562 -263.96875 346.972656 -269.203125 366.109375 -269.203125 C 367.015625 -269.203125 367.46875 -268.753906 367.46875 -267.859375 C 367.46875 -266.960938 367.015625 -266.515625 366.109375 -266.515625 C 356.242188 -266.515625 347.125 -265.09375 338.75 -262.25 C 330.375 -259.40625 322.296875 -255.441406 314.515625 -250.359375 C 320.503906 -244.671875 324.84375 -238.160156 327.53125 -230.828125 C 330.21875 -223.503906 331.5625 -215.957031 331.5625 -208.1875 C 331.5625 -195.914062 328.046875 -183.570312 321.015625 -171.15625 C 313.992188 -158.75 303.898438 -147.757812 290.734375 -138.1875 C 277.578125 -128.613281 262.023438 -122.179688 244.078125 -118.890625 C 249.460938 -117.703125 253.203125 -115.160156 255.296875 -111.265625 C 257.390625 -107.378906 258.4375 -103.789062 258.4375 -100.5 C 258.4375 -92.726562 255.816406 -85.175781 250.578125 -77.84375 C 245.347656 -70.519531 239.21875 -63.191406 232.1875 -55.859375 C 225.15625 -48.523438 219.019531 -41.269531 213.78125 -34.09375 C 208.550781 -26.914062 205.9375 -19.585938 205.9375 -12.109375 C 205.9375 -4.035156 210.722656 0 220.296875 0 C 227.179688 0 234.285156 -2.539062 241.609375 -7.625 C 248.941406 -12.707031 255.820312 -18.6875 262.25 -25.5625 C 268.675781 -32.445312 273.910156 -38.429688 277.953125 -43.515625 C 281.992188 -48.609375 284.015625 -51.15625 284.015625 -51.15625 L 287.15625 -51.15625 C 287.15625 -51.15625 285.132812 -48.460938 281.09375 -43.078125 C 277.050781 -37.691406 271.664062 -31.40625 264.9375 -24.21875 C 258.207031 -17.039062 250.953125 -10.757812 243.171875 -5.375 C 235.398438 0 227.773438 2.6875 220.296875 2.6875 C 212.816406 2.6875 207.054688 0.519531 203.015625 -3.8125 C 198.984375 -8.144531 196.96875 -13.90625 196.96875 -21.09375 C 196.96875 -30.0625 199.582031 -38.429688 204.8125 -46.203125 C 210.050781 -53.984375 216.035156 -61.390625 222.765625 -68.421875 C 229.492188 -75.453125 235.472656 -82.332031 240.703125 -89.0625 C 245.941406 -95.789062 248.5625 -102.445312 248.5625 -109.03125 C 248.5625 -115.007812 245.269531 -118 238.6875 -118 C 236 -117.695312 233.234375 -117.472656 230.390625 -117.328125 C 227.546875 -117.179688 224.628906 -117.109375 221.640625 -117.109375 Z M 221.640625 -117.109375 "/></g></g></g><g fill="#ffffff" fill-opacity="0.502"><g transform="translate(5.488562, 337.624302)"><g><path d="M 221.640625 -117.109375 C 220.441406 -117.109375 219.84375 -117.554688 219.84375 -118.453125 C 219.84375 -119.347656 220.441406 -119.796875 221.640625 -119.796875 C 235.097656 -119.796875 247.8125 -122.710938 259.78125 -128.546875 C 271.75 -134.378906 282.289062 -142.082031 291.40625 -151.65625 C 300.53125 -161.226562 307.707031 -171.769531 312.9375 -183.28125 C 318.175781 -194.800781 320.796875 -206.09375 320.796875 -217.15625 C 320.796875 -222.84375 319.972656 -228.300781 318.328125 -233.53125 C 316.679688 -238.769531 314.066406 -243.628906 310.484375 -248.109375 C 296.421875 -237.941406 283.484375 -224.707031 271.671875 -208.40625 C 259.859375 -192.101562 248.414062 -174.378906 237.34375 -155.234375 C 226.28125 -136.097656 214.691406 -117.109375 202.578125 -98.265625 C 190.460938 -79.421875 177 -62.144531 162.1875 -46.4375 C 147.382812 -30.726562 130.484375 -18.085938 111.484375 -8.515625 C 92.492188 1.046875 70.4375 5.828125 45.3125 5.828125 C 28.5625 5.828125 16.894531 2.835938 10.3125 -3.140625 C 3.738281 -9.117188 0.453125 -15.398438 0.453125 -21.984375 C 0.453125 -28.265625 2.769531 -33.722656 7.40625 -38.359375 C 12.039062 -42.992188 16.898438 -45.3125 21.984375 -45.3125 C 24.671875 -45.3125 26.910156 -44.5625 28.703125 -43.0625 C 30.503906 -41.570312 31.40625 -39.628906 31.40625 -37.234375 C 31.40625 -33.046875 29.609375 -29.679688 26.015625 -27.140625 C 22.429688 -24.597656 18.84375 -22.28125 15.25 -20.1875 C 11.664062 -18.09375 9.875 -15.101562 9.875 -11.21875 C 9.875 -7.332031 13.015625 -3.96875 19.296875 -1.125 C 25.578125 1.71875 34.25 3.140625 45.3125 3.140625 C 64.15625 3.140625 81.578125 -1.644531 97.578125 -11.21875 C 113.585938 -20.789062 128.617188 -33.425781 142.671875 -49.125 C 156.734375 -64.832031 170.34375 -82.179688 183.5 -101.171875 C 196.664062 -120.171875 209.753906 -139.164062 222.765625 -158.15625 C 235.773438 -177.144531 249.234375 -194.789062 263.140625 -211.09375 C 277.054688 -227.394531 291.9375 -240.632812 307.78125 -250.8125 C 302.101562 -257.09375 293.878906 -262.175781 283.109375 -266.0625 C 272.335938 -269.945312 259.03125 -271.890625 243.1875 -271.890625 C 215.664062 -271.890625 190.984375 -267.773438 169.140625 -259.546875 C 147.304688 -251.328125 128.6875 -240.710938 113.28125 -227.703125 C 97.882812 -214.691406 85.847656 -200.859375 77.171875 -186.203125 C 68.492188 -171.546875 63.40625 -157.707031 61.90625 -144.6875 C 60.414062 -131.675781 62.882812 -121.054688 69.3125 -112.828125 C 75.75 -104.609375 86.296875 -100.5 100.953125 -100.5 C 114.410156 -100.5 126.972656 -103.5625 138.640625 -109.6875 C 150.304688 -115.820312 160.625 -123.675781 169.59375 -133.25 C 178.570312 -142.820312 185.976562 -152.914062 191.8125 -163.53125 C 197.644531 -174.15625 201.378906 -184.253906 203.015625 -193.828125 C 204.660156 -203.398438 203.835938 -211.25 200.546875 -217.375 C 197.265625 -223.507812 191.132812 -226.578125 182.15625 -226.578125 C 180.957031 -226.578125 180.359375 -226.875 180.359375 -227.46875 C 180.359375 -228.070312 180.957031 -228.375 182.15625 -228.375 C 192.925781 -228.375 200.628906 -225.234375 205.265625 -218.953125 C 209.898438 -212.671875 211.769531 -204.519531 210.875 -194.5 C 209.976562 -184.476562 206.757812 -173.929688 201.21875 -162.859375 C 195.6875 -151.796875 188.207031 -141.253906 178.78125 -131.234375 C 169.363281 -121.210938 158.222656 -113.0625 145.359375 -106.78125 C 132.503906 -100.5 118.445312 -97.359375 103.1875 -97.359375 C 87.34375 -97.359375 75.828125 -101.617188 68.640625 -110.140625 C 61.460938 -118.671875 58.320312 -129.664062 59.21875 -143.125 C 60.125 -156.582031 64.910156 -170.863281 73.578125 -185.96875 C 82.253906 -201.070312 94.519531 -215.351562 110.375 -228.8125 C 126.226562 -242.28125 145.296875 -253.273438 167.578125 -261.796875 C 189.859375 -270.328125 215.0625 -274.59375 243.1875 -274.59375 C 259.03125 -274.59375 272.5625 -272.722656 283.78125 -268.984375 C 295 -265.242188 304.195312 -260.082031 311.375 -253.5 C 328.726562 -263.96875 346.972656 -269.203125 366.109375 -269.203125 C 367.015625 -269.203125 367.46875 -268.753906 367.46875 -267.859375 C 367.46875 -266.960938 367.015625 -266.515625 366.109375 -266.515625 C 356.242188 -266.515625 347.125 -265.09375 338.75 -262.25 C 330.375 -259.40625 322.296875 -255.441406 314.515625 -250.359375 C 320.503906 -244.671875 324.84375 -238.160156 327.53125 -230.828125 C 330.21875 -223.503906 331.5625 -215.957031 331.5625 -208.1875 C 331.5625 -195.914062 328.046875 -183.570312 321.015625 -171.15625 C 313.992188 -158.75 303.898438 -147.757812 290.734375 -138.1875 C 277.578125 -128.613281 262.023438 -122.179688 244.078125 -118.890625 C 249.460938 -117.703125 253.203125 -115.160156 255.296875 -111.265625 C 257.390625 -107.378906 258.4375 -103.789062 258.4375 -100.5 C 258.4375 -92.726562 255.816406 -85.175781 250.578125 -77.84375 C 245.347656 -70.519531 239.21875 -63.191406 232.1875 -55.859375 C 225.15625 -48.523438 219.019531 -41.269531 213.78125 -34.09375 C 208.550781 -26.914062 205.9375 -19.585938 205.9375 -12.109375 C 205.9375 -4.035156 210.722656 0 220.296875 0 C 227.179688 0 234.285156 -2.539062 241.609375 -7.625 C 248.941406 -12.707031 255.820312 -18.6875 262.25 -25.5625 C 268.675781 -32.445312 273.910156 -38.429688 277.953125 -43.515625 C 281.992188 -48.609375 284.015625 -51.15625 284.015625 -51.15625 L 287.15625 -51.15625 C 287.15625 -51.15625 285.132812 -48.460938 281.09375 -43.078125 C 277.050781 -37.691406 271.664062 -31.40625 264.9375 -24.21875 C 258.207031 -17.039062 250.953125 -10.757812 243.171875 -5.375 C 235.398438 0 227.773438 2.6875 220.296875 2.6875 C 212.816406 2.6875 207.054688 0.519531 203.015625 -3.8125 C 198.984375 -8.144531 196.96875 -13.90625 196.96875 -21.09375 C 196.96875 -30.0625 199.582031 -38.429688 204.8125 -46.203125 C 210.050781 -53.984375 216.035156 -61.390625 222.765625 -68.421875 C 229.492188 -75.453125 235.472656 -82.332031 240.703125 -89.0625 C 245.941406 -95.789062 248.5625 -102.445312 248.5625 -109.03125 C 248.5625 -115.007812 245.269531 -118 238.6875 -118 C 236 -117.695312 233.234375 -117.472656 230.390625 -117.328125 C 227.546875 -117.179688 224.628906 -117.109375 221.640625 -117.109375 Z M 221.640625 -117.109375 "/></g></g></g><g fill="#000000" fill-opacity="1"><g transform="translate(1.068968, 334.171335)"><g><path d="M 221.640625 -117.109375 C 220.441406 -117.109375 219.84375 -117.554688 219.84375 -118.453125 C 219.84375 -119.347656 220.441406 -119.796875 221.640625 -119.796875 C 235.097656 -119.796875 247.8125 -122.710938 259.78125 -128.546875 C 271.75 -134.378906 282.289062 -142.082031 291.40625 -151.65625 C 300.53125 -161.226562 307.707031 -171.769531 312.9375 -183.28125 C 318.175781 -194.800781 320.796875 -206.09375 320.796875 -217.15625 C 320.796875 -222.84375 319.972656 -228.300781 318.328125 -233.53125 C 316.679688 -238.769531 314.066406 -243.628906 310.484375 -248.109375 C 296.421875 -237.941406 283.484375 -224.707031 271.671875 -208.40625 C 259.859375 -192.101562 248.414062 -174.378906 237.34375 -155.234375 C 226.28125 -136.097656 214.691406 -117.109375 202.578125 -98.265625 C 190.460938 -79.421875 177 -62.144531 162.1875 -46.4375 C 147.382812 -30.726562 130.484375 -18.085938 111.484375 -8.515625 C 92.492188 1.046875 70.4375 5.828125 45.3125 5.828125 C 28.5625 5.828125 16.894531 2.835938 10.3125 -3.140625 C 3.738281 -9.117188 0.453125 -15.398438 0.453125 -21.984375 C 0.453125 -28.265625 2.769531 -33.722656 7.40625 -38.359375 C 12.039062 -42.992188 16.898438 -45.3125 21.984375 -45.3125 C 24.671875 -45.3125 26.910156 -44.5625 28.703125 -43.0625 C 30.503906 -41.570312 31.40625 -39.628906 31.40625 -37.234375 C 31.40625 -33.046875 29.609375 -29.679688 26.015625 -27.140625 C 22.429688 -24.597656 18.84375 -22.28125 15.25 -20.1875 C 11.664062 -18.09375 9.875 -15.101562 9.875 -11.21875 C 9.875 -7.332031 13.015625 -3.96875 19.296875 -1.125 C 25.578125 1.71875 34.25 3.140625 45.3125 3.140625 C 64.15625 3.140625 81.578125 -1.644531 97.578125 -11.21875 C 113.585938 -20.789062 128.617188 -33.425781 142.671875 -49.125 C 156.734375 -64.832031 170.34375 -82.179688 183.5 -101.171875 C 196.664062 -120.171875 209.753906 -139.164062 222.765625 -158.15625 C 235.773438 -177.144531 249.234375 -194.789062 263.140625 -211.09375 C 277.054688 -227.394531 291.9375 -240.632812 307.78125 -250.8125 C 302.101562 -257.09375 293.878906 -262.175781 283.109375 -266.0625 C 272.335938 -269.945312 259.03125 -271.890625 243.1875 -271.890625 C 215.664062 -271.890625 190.984375 -267.773438 169.140625 -259.546875 C 147.304688 -251.328125 128.6875 -240.710938 113.28125 -227.703125 C 97.882812 -214.691406 85.847656 -200.859375 77.171875 -186.203125 C 68.492188 -171.546875 63.40625 -157.707031 61.90625 -144.6875 C 60.414062 -131.675781 62.882812 -121.054688 69.3125 -112.828125 C 75.75 -104.609375 86.296875 -100.5 100.953125 -100.5 C 114.410156 -100.5 126.972656 -103.5625 138.640625 -109.6875 C 150.304688 -115.820312 160.625 -123.675781 169.59375 -133.25 C 178.570312 -142.820312 185.976562 -152.914062 191.8125 -163.53125 C 197.644531 -174.15625 201.378906 -184.253906 203.015625 -193.828125 C 204.660156 -203.398438 203.835938 -211.25 200.546875 -217.375 C 197.265625 -223.507812 191.132812 -226.578125 182.15625 -226.578125 C 180.957031 -226.578125 180.359375 -226.875 180.359375 -227.46875 C 180.359375 -228.070312 180.957031 -228.375 182.15625 -228.375 C 192.925781 -228.375 200.628906 -225.234375 205.265625 -218.953125 C 209.898438 -212.671875 211.769531 -204.519531 210.875 -194.5 C 209.976562 -184.476562 206.757812 -173.929688 201.21875 -162.859375 C 195.6875 -151.796875 188.207031 -141.253906 178.78125 -131.234375 C 169.363281 -121.210938 158.222656 -113.0625 145.359375 -106.78125 C 132.503906 -100.5 118.445312 -97.359375 103.1875 -97.359375 C 87.34375 -97.359375 75.828125 -101.617188 68.640625 -110.140625 C 61.460938 -118.671875 58.320312 -129.664062 59.21875 -143.125 C 60.125 -156.582031 64.910156 -170.863281 73.578125 -185.96875 C 82.253906 -201.070312 94.519531 -215.351562 110.375 -228.8125 C 126.226562 -242.28125 145.296875 -253.273438 167.578125 -261.796875 C 189.859375 -270.328125 215.0625 -274.59375 243.1875 -274.59375 C 259.03125 -274.59375 272.5625 -272.722656 283.78125 -268.984375 C 295 -265.242188 304.195312 -260.082031 311.375 -253.5 C 328.726562 -263.96875 346.972656 -269.203125 366.109375 -269.203125 C 367.015625 -269.203125 367.46875 -268.753906 367.46875 -267.859375 C 367.46875 -266.960938 367.015625 -266.515625 366.109375 -266.515625 C 356.242188 -266.515625 347.125 -265.09375 338.75 -262.25 C 330.375 -259.40625 322.296875 -255.441406 314.515625 -250.359375 C 320.503906 -244.671875 324.84375 -238.160156 327.53125 -230.828125 C 330.21875 -223.503906 331.5625 -215.957031 331.5625 -208.1875 C 331.5625 -195.914062 328.046875 -183.570312 321.015625 -171.15625 C 313.992188 -158.75 303.898438 -147.757812 290.734375 -138.1875 C 277.578125 -128.613281 262.023438 -122.179688 244.078125 -118.890625 C 249.460938 -117.703125 253.203125 -115.160156 255.296875 -111.265625 C 257.390625 -107.378906 258.4375 -103.789062 258.4375 -100.5 C 258.4375 -92.726562 255.816406 -85.175781 250.578125 -77.84375 C 245.347656 -70.519531 239.21875 -63.191406 232.1875 -55.859375 C 225.15625 -48.523438 219.019531 -41.269531 213.78125 -34.09375 C 208.550781 -26.914062 205.9375 -19.585938 205.9375 -12.109375 C 205.9375 -4.035156 210.722656 0 220.296875 0 C 227.179688 0 234.285156 -2.539062 241.609375 -7.625 C 248.941406 -12.707031 255.820312 -18.6875 262.25 -25.5625 C 268.675781 -32.445312 273.910156 -38.429688 277.953125 -43.515625 C 281.992188 -48.609375 284.015625 -51.15625 284.015625 -51.15625 L 287.15625 -51.15625 C 287.15625 -51.15625 285.132812 -48.460938 281.09375 -43.078125 C 277.050781 -37.691406 271.664062 -31.40625 264.9375 -24.21875 C 258.207031 -17.039062 250.953125 -10.757812 243.171875 -5.375 C 235.398438 0 227.773438 2.6875 220.296875 2.6875 C 212.816406 2.6875 207.054688 0.519531 203.015625 -3.8125 C 198.984375 -8.144531 196.96875 -13.90625 196.96875 -21.09375 C 196.96875 -30.0625 199.582031 -38.429688 204.8125 -46.203125 C 210.050781 -53.984375 216.035156 -61.390625 222.765625 -68.421875 C 229.492188 -75.453125 235.472656 -82.332031 240.703125 -89.0625 C 245.941406 -95.789062 248.5625 -102.445312 248.5625 -109.03125 C 248.5625 -115.007812 245.269531 -118 238.6875 -118 C 236 -117.695312 233.234375 -117.472656 230.390625 -117.328125 C 227.546875 -117.179688 224.628906 -117.109375 221.640625 -117.109375 Z M 221.640625 -117.109375 "/></g></g></g></g></g></g><g fill="#ffffff" fill-opacity="0.302"><g transform="translate(287.560627, 328.539644)"><g><path d="M 11.390625 -85.125 L 36.078125 -85.125 L 36.078125 0 L 11.390625 0 Z M 23.734375 -96.984375 C 19.203125 -96.984375 15.507812 -98.300781 12.65625 -100.9375 C 9.8125 -103.582031 8.390625 -106.851562 8.390625 -110.75 C 8.390625 -114.65625 9.8125 -117.925781 12.65625 -120.5625 C 15.507812 -123.195312 19.203125 -124.515625 23.734375 -124.515625 C 28.273438 -124.515625 31.96875 -123.25 34.8125 -120.71875 C 37.65625 -118.1875 39.078125 -115.023438 39.078125 -111.234375 C 39.078125 -107.117188 37.65625 -103.710938 34.8125 -101.015625 C 31.96875 -98.328125 28.273438 -96.984375 23.734375 -96.984375 Z M 23.734375 -96.984375 "/></g></g></g><g fill="#ffffff" fill-opacity="0.302"><g transform="translate(335.18125, 328.539644)"><g><path d="M 81.484375 -18.984375 L 81.484375 0 L 5.53125 0 L 5.53125 -14.875 L 48.890625 -66.140625 L 6.640625 -66.140625 L 6.640625 -85.125 L 80.0625 -85.125 L 80.0625 -70.25 L 36.703125 -18.984375 Z M 81.484375 -18.984375 "/></g></g></g><g fill="#ffffff" fill-opacity="0.302"><g transform="translate(421.08821, 328.539644)"><g><path d="M 81.484375 -18.984375 L 81.484375 0 L 5.53125 0 L 5.53125 -14.875 L 48.890625 -66.140625 L 6.640625 -66.140625 L 6.640625 -85.125 L 80.0625 -85.125 L 80.0625 -70.25 L 36.703125 -18.984375 Z M 81.484375 -18.984375 "/></g></g></g><g fill="#ffffff" fill-opacity="0.502"><g transform="translate(283.664258, 325.495444)"><g><path d="M 11.390625 -85.125 L 36.078125 -85.125 L 36.078125 0 L 11.390625 0 Z M 23.734375 -96.984375 C 19.203125 -96.984375 15.507812 -98.300781 12.65625 -100.9375 C 9.8125 -103.582031 8.390625 -106.851562 8.390625 -110.75 C 8.390625 -114.65625 9.8125 -117.925781 12.65625 -120.5625 C 15.507812 -123.195312 19.203125 -124.515625 23.734375 -124.515625 C 28.273438 -124.515625 31.96875 -123.25 34.8125 -120.71875 C 37.65625 -118.1875 39.078125 -115.023438 39.078125 -111.234375 C 39.078125 -107.117188 37.65625 -103.710938 34.8125 -101.015625 C 31.96875 -98.328125 28.273438 -96.984375 23.734375 -96.984375 Z M 23.734375 -96.984375 "/></g></g></g><g fill="#ffffff" fill-opacity="0.502"><g transform="translate(331.284881, 325.495444)"><g><path d="M 81.484375 -18.984375 L 81.484375 0 L 5.53125 0 L 5.53125 -14.875 L 48.890625 -66.140625 L 6.640625 -66.140625 L 6.640625 -85.125 L 80.0625 -85.125 L 80.0625 -70.25 L 36.703125 -18.984375 Z M 81.484375 -18.984375 "/></g></g></g><g fill="#ffffff" fill-opacity="0.502"><g transform="translate(417.191841, 325.495444)"><g><path d="M 81.484375 -18.984375 L 81.484375 0 L 5.53125 0 L 5.53125 -14.875 L 48.890625 -66.140625 L 6.640625 -66.140625 L 6.640625 -85.125 L 80.0625 -85.125 L 80.0625 -70.25 L 36.703125 -18.984375 Z M 81.484375 -18.984375 "/></g></g></g><g fill="#000000" fill-opacity="1"><g transform="translate(279.767882, 322.451273)"><g><path d="M 11.390625 -85.125 L 36.078125 -85.125 L 36.078125 0 L 11.390625 0 Z M 23.734375 -96.984375 C 19.203125 -96.984375 15.507812 -98.300781 12.65625 -100.9375 C 9.8125 -103.582031 8.390625 -106.851562 8.390625 -110.75 C 8.390625 -114.65625 9.8125 -117.925781 12.65625 -120.5625 C 15.507812 -123.195312 19.203125 -124.515625 23.734375 -124.515625 C 28.273438 -124.515625 31.96875 -123.25 34.8125 -120.71875 C 37.65625 -118.1875 39.078125 -115.023438 39.078125 -111.234375 C 39.078125 -107.117188 37.65625 -103.710938 34.8125 -101.015625 C 31.96875 -98.328125 28.273438 -96.984375 23.734375 -96.984375 Z M 23.734375 -96.984375 "/></g></g></g><g fill="#000000" fill-opacity="1"><g transform="translate(327.388505, 322.451273)"><g><path d="M 81.484375 -18.984375 L 81.484375 0 L 5.53125 0 L 5.53125 -14.875 L 48.890625 -66.140625 L 6.640625 -66.140625 L 6.640625 -85.125 L 80.0625 -85.125 L 80.0625 -70.25 L 36.703125 -18.984375 Z M 81.484375 -18.984375 "/></g></g></g><g fill="#000000" fill-opacity="1"><g transform="translate(413.295465, 322.451273)"><g><path d="M 81.484375 -18.984375 L 81.484375 0 L 5.53125 0 L 5.53125 -14.875 L 48.890625 -66.140625 L 6.640625 -66.140625 L 6.640625 -85.125 L 80.0625 -85.125 L 80.0625 -70.25 L 36.703125 -18.984375 Z M 81.484375 -18.984375 "/></g></g></g><g clip-path="url(#5355497000)"><g transform="matrix(1, 0, 0, 1, 288, 330)"><g clip-path="url(#d14a6a6889)"><g fill="#ffffff" fill-opacity="0.302"><g transform="translate(8.392364, 52.477367)"><g><path d="M 15.0625 -28.140625 L 13.234375 -19.015625 L 29.28125 -19.015625 L 27.953125 -12.59375 L 12 -12.59375 L 9.484375 0 L 1.4375 0 L 8.34375 -34.5625 L 34.46875 -34.5625 L 33.125 -28.140625 Z M 15.0625 -28.140625 "/></g></g></g><g fill="#ffffff" fill-opacity="0.302"><g transform="translate(39.248762, 52.477367)"><g><path d="M 32.984375 -26.5625 L 27.703125 0 L 20.390625 0 L 20.9375 -2.859375 C 19.78125 -1.773438 18.460938 -0.960938 16.984375 -0.421875 C 15.503906 0.117188 13.941406 0.390625 12.296875 0.390625 C 9.398438 0.390625 7.085938 -0.394531 5.359375 -1.96875 C 3.628906 -3.550781 2.765625 -5.773438 2.765625 -8.640625 C 2.765625 -9.722656 2.878906 -10.789062 3.109375 -11.84375 L 6.03125 -26.5625 L 13.71875 -26.5625 L 10.90625 -12.34375 C 10.78125 -11.71875 10.71875 -11.078125 10.71875 -10.421875 C 10.71875 -7.648438 12.195312 -6.265625 15.15625 -6.265625 C 17.101562 -6.265625 18.707031 -6.832031 19.96875 -7.96875 C 21.238281 -9.101562 22.101562 -10.804688 22.5625 -13.078125 L 25.28125 -26.5625 Z M 32.984375 -26.5625 "/></g></g></g><g fill="#ffffff" fill-opacity="0.302"><g transform="translate(73.166194, 52.477367)"><g><path d="M 12.890625 -23.40625 C 14.035156 -24.65625 15.421875 -25.554688 17.046875 -26.109375 C 18.679688 -26.671875 20.601562 -26.953125 22.8125 -26.953125 L 21.421875 -19.84375 C 20.503906 -19.914062 19.914062 -19.953125 19.65625 -19.953125 C 17.3125 -19.953125 15.441406 -19.375 14.046875 -18.21875 C 12.648438 -17.0625 11.703125 -15.269531 11.203125 -12.84375 L 8.640625 0 L 0.9375 0 L 6.21875 -26.5625 L 13.53125 -26.5625 Z M 12.890625 -23.40625 "/></g></g></g><g fill="#ffffff" fill-opacity="0.302"><g transform="translate(94.247327, 52.477367)"><g><path d="M 21.671875 -26.953125 C 24.640625 -26.953125 26.992188 -26.171875 28.734375 -24.609375 C 30.484375 -23.046875 31.359375 -20.816406 31.359375 -17.921875 C 31.359375 -16.835938 31.238281 -15.769531 31 -14.71875 L 28.046875 0 L 20.34375 0 L 23.203125 -14.21875 C 23.335938 -14.78125 23.40625 -15.390625 23.40625 -16.046875 C 23.40625 -17.429688 23.023438 -18.484375 22.265625 -19.203125 C 21.503906 -19.929688 20.367188 -20.296875 18.859375 -20.296875 C 16.890625 -20.296875 15.253906 -19.726562 13.953125 -18.59375 C 12.648438 -17.457031 11.769531 -15.753906 11.3125 -13.484375 L 8.640625 0 L 0.9375 0 L 6.21875 -26.5625 L 13.53125 -26.5625 L 12.9375 -23.703125 C 15.300781 -25.867188 18.210938 -26.953125 21.671875 -26.953125 Z M 21.671875 -26.953125 "/></g></g></g><g fill="#ffffff" fill-opacity="0.302"><g transform="translate(128.36223, 52.477367)"><g><path d="M 6.21875 -26.5625 L 13.875 -26.5625 L 8.59375 0 L 0.9375 0 Z M 11.359375 -30.265625 C 10.035156 -30.265625 8.953125 -30.648438 8.109375 -31.421875 C 7.273438 -32.203125 6.859375 -33.148438 6.859375 -34.265625 C 6.859375 -35.578125 7.328125 -36.671875 8.265625 -37.546875 C 9.203125 -38.421875 10.429688 -38.859375 11.953125 -38.859375 C 13.296875 -38.859375 14.382812 -38.488281 15.21875 -37.75 C 16.0625 -37.007812 16.484375 -36.09375 16.484375 -35 C 16.484375 -33.59375 16.003906 -32.453125 15.046875 -31.578125 C 14.097656 -30.703125 12.867188 -30.265625 11.359375 -30.265625 Z M 11.359375 -30.265625 "/></g></g></g><g fill="#ffffff" fill-opacity="0.302"><g transform="translate(143.173343, 52.477367)"><g><path d="M 11.40625 -9.375 C 11.34375 -9.113281 11.3125 -8.753906 11.3125 -8.296875 C 11.3125 -6.585938 12.25 -5.734375 14.125 -5.734375 C 15.144531 -5.734375 16.179688 -6.046875 17.234375 -6.671875 L 18.375 -1.1875 C 16.65625 -0.132812 14.445312 0.390625 11.75 0.390625 C 9.25 0.390625 7.238281 -0.265625 5.71875 -1.578125 C 4.207031 -2.898438 3.453125 -4.710938 3.453125 -7.015625 C 3.453125 -7.671875 3.535156 -8.441406 3.703125 -9.328125 L 5.828125 -20.046875 L 1.734375 -20.046875 L 2.90625 -25.96875 L 7.015625 -25.96875 L 8.296875 -32.4375 L 16 -32.4375 L 14.71875 -25.96875 L 21.328125 -25.96875 L 20.140625 -20.046875 L 13.53125 -20.046875 Z M 11.40625 -9.375 "/></g></g></g><g fill="#ffffff" fill-opacity="0.302"><g transform="translate(164.649438, 52.477367)"><g><path d="M 32.984375 -26.5625 L 27.703125 0 L 20.390625 0 L 20.9375 -2.859375 C 19.78125 -1.773438 18.460938 -0.960938 16.984375 -0.421875 C 15.503906 0.117188 13.941406 0.390625 12.296875 0.390625 C 9.398438 0.390625 7.085938 -0.394531 5.359375 -1.96875 C 3.628906 -3.550781 2.765625 -5.773438 2.765625 -8.640625 C 2.765625 -9.722656 2.878906 -10.789062 3.109375 -11.84375 L 6.03125 -26.5625 L 13.71875 -26.5625 L 10.90625 -12.34375 C 10.78125 -11.71875 10.71875 -11.078125 10.71875 -10.421875 C 10.71875 -7.648438 12.195312 -6.265625 15.15625 -6.265625 C 17.101562 -6.265625 18.707031 -6.832031 19.96875 -7.96875 C 21.238281 -9.101562 22.101562 -10.804688 22.5625 -13.078125 L 25.28125 -26.5625 Z M 32.984375 -26.5625 "/></g></g></g><g fill="#ffffff" fill-opacity="0.302"><g transform="translate(198.56687, 52.477367)"><g><path d="M 12.890625 -23.40625 C 14.035156 -24.65625 15.421875 -25.554688 17.046875 -26.109375 C 18.679688 -26.671875 20.601562 -26.953125 22.8125 -26.953125 L 21.421875 -19.84375 C 20.503906 -19.914062 19.914062 -19.953125 19.65625 -19.953125 C 17.3125 -19.953125 15.441406 -19.375 14.046875 -18.21875 C 12.648438 -17.0625 11.703125 -15.269531 11.203125 -12.84375 L 8.640625 0 L 0.9375 0 L 6.21875 -26.5625 L 13.53125 -26.5625 Z M 12.890625 -23.40625 "/></g></g></g><g fill="#ffffff" fill-opacity="0.302"><g transform="translate(219.401111, 52.477367)"><g><path d="M 29.765625 -15.25 C 29.765625 -14.039062 29.617188 -12.691406 29.328125 -11.203125 L 8.984375 -11.203125 C 9.242188 -7.585938 11.53125 -5.78125 15.84375 -5.78125 C 17.195312 -5.78125 18.488281 -5.992188 19.71875 -6.421875 C 20.957031 -6.847656 22.035156 -7.457031 22.953125 -8.25 L 26.171875 -3.15625 C 24.691406 -1.96875 22.992188 -1.078125 21.078125 -0.484375 C 19.171875 0.0976562 17.164062 0.390625 15.0625 0.390625 C 12.332031 0.390625 9.9375 -0.09375 7.875 -1.0625 C 5.820312 -2.03125 4.242188 -3.421875 3.140625 -5.234375 C 2.035156 -7.046875 1.484375 -9.132812 1.484375 -11.5 C 1.484375 -14.4375 2.148438 -17.078125 3.484375 -19.421875 C 4.816406 -21.773438 6.664062 -23.617188 9.03125 -24.953125 C 11.40625 -26.285156 14.109375 -26.953125 17.140625 -26.953125 C 19.703125 -26.953125 21.925781 -26.472656 23.8125 -25.515625 C 25.707031 -24.566406 27.171875 -23.203125 28.203125 -21.421875 C 29.242188 -19.648438 29.765625 -17.59375 29.765625 -15.25 Z M 16.78125 -21.1875 C 14.976562 -21.1875 13.445312 -20.695312 12.1875 -19.71875 C 10.9375 -18.75 10.050781 -17.410156 9.53125 -15.703125 L 22.71875 -15.703125 C 22.71875 -17.410156 22.179688 -18.75 21.109375 -19.71875 C 20.035156 -20.695312 18.59375 -21.1875 16.78125 -21.1875 Z M 16.78125 -21.1875 "/></g></g></g><g fill="#ffffff" fill-opacity="0.502"><g transform="translate(5.230508, 50.007044)"><g><path d="M 15.0625 -28.140625 L 13.234375 -19.015625 L 29.28125 -19.015625 L 27.953125 -12.59375 L 12 -12.59375 L 9.484375 0 L 1.4375 0 L 8.34375 -34.5625 L 34.46875 -34.5625 L 33.125 -28.140625 Z M 15.0625 -28.140625 "/></g></g></g><g fill="#ffffff" fill-opacity="0.502"><g transform="translate(36.086905, 50.007044)"><g><path d="M 32.984375 -26.5625 L 27.703125 0 L 20.390625 0 L 20.9375 -2.859375 C 19.78125 -1.773438 18.460938 -0.960938 16.984375 -0.421875 C 15.503906 0.117188 13.941406 0.390625 12.296875 0.390625 C 9.398438 0.390625 7.085938 -0.394531 5.359375 -1.96875 C 3.628906 -3.550781 2.765625 -5.773438 2.765625 -8.640625 C 2.765625 -9.722656 2.878906 -10.789062 3.109375 -11.84375 L 6.03125 -26.5625 L 13.71875 -26.5625 L 10.90625 -12.34375 C 10.78125 -11.71875 10.71875 -11.078125 10.71875 -10.421875 C 10.71875 -7.648438 12.195312 -6.265625 15.15625 -6.265625 C 17.101562 -6.265625 18.707031 -6.832031 19.96875 -7.96875 C 21.238281 -9.101562 22.101562 -10.804688 22.5625 -13.078125 L 25.28125 -26.5625 Z M 32.984375 -26.5625 "/></g></g></g><g fill="#ffffff" fill-opacity="0.502"><g transform="translate(70.004337, 50.007044)"><g><path d="M 12.890625 -23.40625 C 14.035156 -24.65625 15.421875 -25.554688 17.046875 -26.109375 C 18.679688 -26.671875 20.601562 -26.953125 22.8125 -26.953125 L 21.421875 -19.84375 C 20.503906 -19.914062 19.914062 -19.953125 19.65625 -19.953125 C 17.3125 -19.953125 15.441406 -19.375 14.046875 -18.21875 C 12.648438 -17.0625 11.703125 -15.269531 11.203125 -12.84375 L 8.640625 0 L 0.9375 0 L 6.21875 -26.5625 L 13.53125 -26.5625 Z M 12.890625 -23.40625 "/></g></g></g><g fill="#ffffff" fill-opacity="0.502"><g transform="translate(91.085471, 50.007044)"><g><path d="M 21.671875 -26.953125 C 24.640625 -26.953125 26.992188 -26.171875 28.734375 -24.609375 C 30.484375 -23.046875 31.359375 -20.816406 31.359375 -17.921875 C 31.359375 -16.835938 31.238281 -15.769531 31 -14.71875 L 28.046875 0 L 20.34375 0 L 23.203125 -14.21875 C 23.335938 -14.78125 23.40625 -15.390625 23.40625 -16.046875 C 23.40625 -17.429688 23.023438 -18.484375 22.265625 -19.203125 C 21.503906 -19.929688 20.367188 -20.296875 18.859375 -20.296875 C 16.890625 -20.296875 15.253906 -19.726562 13.953125 -18.59375 C 12.648438 -17.457031 11.769531 -15.753906 11.3125 -13.484375 L 8.640625 0 L 0.9375 0 L 6.21875 -26.5625 L 13.53125 -26.5625 L 12.9375 -23.703125 C 15.300781 -25.867188 18.210938 -26.953125 21.671875 -26.953125 Z M 21.671875 -26.953125 "/></g></g></g><g fill="#ffffff" fill-opacity="0.502"><g transform="translate(125.200374, 50.007044)"><g><path d="M 6.21875 -26.5625 L 13.875 -26.5625 L 8.59375 0 L 0.9375 0 Z M 11.359375 -30.265625 C 10.035156 -30.265625 8.953125 -30.648438 8.109375 -31.421875 C 7.273438 -32.203125 6.859375 -33.148438 6.859375 -34.265625 C 6.859375 -35.578125 7.328125 -36.671875 8.265625 -37.546875 C 9.203125 -38.421875 10.429688 -38.859375 11.953125 -38.859375 C 13.296875 -38.859375 14.382812 -38.488281 15.21875 -37.75 C 16.0625 -37.007812 16.484375 -36.09375 16.484375 -35 C 16.484375 -33.59375 16.003906 -32.453125 15.046875 -31.578125 C 14.097656 -30.703125 12.867188 -30.265625 11.359375 -30.265625 Z M 11.359375 -30.265625 "/></g></g></g><g fill="#ffffff" fill-opacity="0.502"><g transform="translate(140.011486, 50.007044)"><g><path d="M 11.40625 -9.375 C 11.34375 -9.113281 11.3125 -8.753906 11.3125 -8.296875 C 11.3125 -6.585938 12.25 -5.734375 14.125 -5.734375 C 15.144531 -5.734375 16.179688 -6.046875 17.234375 -6.671875 L 18.375 -1.1875 C 16.65625 -0.132812 14.445312 0.390625 11.75 0.390625 C 9.25 0.390625 7.238281 -0.265625 5.71875 -1.578125 C 4.207031 -2.898438 3.453125 -4.710938 3.453125 -7.015625 C 3.453125 -7.671875 3.535156 -8.441406 3.703125 -9.328125 L 5.828125 -20.046875 L 1.734375 -20.046875 L 2.90625 -25.96875 L 7.015625 -25.96875 L 8.296875 -32.4375 L 16 -32.4375 L 14.71875 -25.96875 L 21.328125 -25.96875 L 20.140625 -20.046875 L 13.53125 -20.046875 Z M 11.40625 -9.375 "/></g></g></g><g fill="#ffffff" fill-opacity="0.502"><g transform="translate(161.487582, 50.007044)"><g><path d="M 32.984375 -26.5625 L 27.703125 0 L 20.390625 0 L 20.9375 -2.859375 C 19.78125 -1.773438 18.460938 -0.960938 16.984375 -0.421875 C 15.503906 0.117188 13.941406 0.390625 12.296875 0.390625 C 9.398438 0.390625 7.085938 -0.394531 5.359375 -1.96875 C 3.628906 -3.550781 2.765625 -5.773438 2.765625 -8.640625 C 2.765625 -9.722656 2.878906 -10.789062 3.109375 -11.84375 L 6.03125 -26.5625 L 13.71875 -26.5625 L 10.90625 -12.34375 C 10.78125 -11.71875 10.71875 -11.078125 10.71875 -10.421875 C 10.71875 -7.648438 12.195312 -6.265625 15.15625 -6.265625 C 17.101562 -6.265625 18.707031 -6.832031 19.96875 -7.96875 C 21.238281 -9.101562 22.101562 -10.804688 22.5625 -13.078125 L 25.28125 -26.5625 Z M 32.984375 -26.5625 "/></g></g></g><g fill="#ffffff" fill-opacity="0.502"><g transform="translate(195.405014, 50.007044)"><g><path d="M 12.890625 -23.40625 C 14.035156 -24.65625 15.421875 -25.554688 17.046875 -26.109375 C 18.679688 -26.671875 20.601562 -26.953125 22.8125 -26.953125 L 21.421875 -19.84375 C 20.503906 -19.914062 19.914062 -19.953125 19.65625 -19.953125 C 17.3125 -19.953125 15.441406 -19.375 14.046875 -18.21875 C 12.648438 -17.0625 11.703125 -15.269531 11.203125 -12.84375 L 8.640625 0 L 0.9375 0 L 6.21875 -26.5625 L 13.53125 -26.5625 Z M 12.890625 -23.40625 "/></g></g></g><g fill="#ffffff" fill-opacity="0.502"><g transform="translate(216.239254, 50.007044)"><g><path d="M 29.765625 -15.25 C 29.765625 -14.039062 29.617188 -12.691406 29.328125 -11.203125 L 8.984375 -11.203125 C 9.242188 -7.585938 11.53125 -5.78125 15.84375 -5.78125 C 17.195312 -5.78125 18.488281 -5.992188 19.71875 -6.421875 C 20.957031 -6.847656 22.035156 -7.457031 22.953125 -8.25 L 26.171875 -3.15625 C 24.691406 -1.96875 22.992188 -1.078125 21.078125 -0.484375 C 19.171875 0.0976562 17.164062 0.390625 15.0625 0.390625 C 12.332031 0.390625 9.9375 -0.09375 7.875 -1.0625 C 5.820312 -2.03125 4.242188 -3.421875 3.140625 -5.234375 C 2.035156 -7.046875 1.484375 -9.132812 1.484375 -11.5 C 1.484375 -14.4375 2.148438 -17.078125 3.484375 -19.421875 C 4.816406 -21.773438 6.664062 -23.617188 9.03125 -24.953125 C 11.40625 -26.285156 14.109375 -26.953125 17.140625 -26.953125 C 19.703125 -26.953125 21.925781 -26.472656 23.8125 -25.515625 C 25.707031 -24.566406 27.171875 -23.203125 28.203125 -21.421875 C 29.242188 -19.648438 29.765625 -17.59375 29.765625 -15.25 Z M 16.78125 -21.1875 C 14.976562 -21.1875 13.445312 -20.695312 12.1875 -19.71875 C 10.9375 -18.75 10.050781 -17.410156 9.53125 -15.703125 L 22.71875 -15.703125 C 22.71875 -17.410156 22.179688 -18.75 21.109375 -19.71875 C 20.035156 -20.695312 18.59375 -21.1875 16.78125 -21.1875 Z M 16.78125 -21.1875 "/></g></g></g><g fill="#000000" fill-opacity="1"><g transform="translate(2.068652, 47.536721)"><g><path d="M 15.0625 -28.140625 L 13.234375 -19.015625 L 29.28125 -19.015625 L 27.953125 -12.59375 L 12 -12.59375 L 9.484375 0 L 1.4375 0 L 8.34375 -34.5625 L 34.46875 -34.5625 L 33.125 -28.140625 Z M 15.0625 -28.140625 "/></g></g></g><g fill="#000000" fill-opacity="1"><g transform="translate(32.925049, 47.536721)"><g><path d="M 32.984375 -26.5625 L 27.703125 0 L 20.390625 0 L 20.9375 -2.859375 C 19.78125 -1.773438 18.460938 -0.960938 16.984375 -0.421875 C 15.503906 0.117188 13.941406 0.390625 12.296875 0.390625 C 9.398438 0.390625 7.085938 -0.394531 5.359375 -1.96875 C 3.628906 -3.550781 2.765625 -5.773438 2.765625 -8.640625 C 2.765625 -9.722656 2.878906 -10.789062 3.109375 -11.84375 L 6.03125 -26.5625 L 13.71875 -26.5625 L 10.90625 -12.34375 C 10.78125 -11.71875 10.71875 -11.078125 10.71875 -10.421875 C 10.71875 -7.648438 12.195312 -6.265625 15.15625 -6.265625 C 17.101562 -6.265625 18.707031 -6.832031 19.96875 -7.96875 C 21.238281 -9.101562 22.101562 -10.804688 22.5625 -13.078125 L 25.28125 -26.5625 Z M 32.984375 -26.5625 "/></g></g></g><g fill="#000000" fill-opacity="1"><g transform="translate(66.842481, 47.536721)"><g><path d="M 12.890625 -23.40625 C 14.035156 -24.65625 15.421875 -25.554688 17.046875 -26.109375 C 18.679688 -26.671875 20.601562 -26.953125 22.8125 -26.953125 L 21.421875 -19.84375 C 20.503906 -19.914062 19.914062 -19.953125 19.65625 -19.953125 C 17.3125 -19.953125 15.441406 -19.375 14.046875 -18.21875 C 12.648438 -17.0625 11.703125 -15.269531 11.203125 -12.84375 L 8.640625 0 L 0.9375 0 L 6.21875 -26.5625 L 13.53125 -26.5625 Z M 12.890625 -23.40625 "/></g></g></g><g fill="#000000" fill-opacity="1"><g transform="translate(87.923614, 47.536721)"><g><path d="M 21.671875 -26.953125 C 24.640625 -26.953125 26.992188 -26.171875 28.734375 -24.609375 C 30.484375 -23.046875 31.359375 -20.816406 31.359375 -17.921875 C 31.359375 -16.835938 31.238281 -15.769531 31 -14.71875 L 28.046875 0 L 20.34375 0 L 23.203125 -14.21875 C 23.335938 -14.78125 23.40625 -15.390625 23.40625 -16.046875 C 23.40625 -17.429688 23.023438 -18.484375 22.265625 -19.203125 C 21.503906 -19.929688 20.367188 -20.296875 18.859375 -20.296875 C 16.890625 -20.296875 15.253906 -19.726562 13.953125 -18.59375 C 12.648438 -17.457031 11.769531 -15.753906 11.3125 -13.484375 L 8.640625 0 L 0.9375 0 L 6.21875 -26.5625 L 13.53125 -26.5625 L 12.9375 -23.703125 C 15.300781 -25.867188 18.210938 -26.953125 21.671875 -26.953125 Z M 21.671875 -26.953125 "/></g></g></g><g fill="#000000" fill-opacity="1"><g transform="translate(122.038518, 47.536721)"><g><path d="M 6.21875 -26.5625 L 13.875 -26.5625 L 8.59375 0 L 0.9375 0 Z M 11.359375 -30.265625 C 10.035156 -30.265625 8.953125 -30.648438 8.109375 -31.421875 C 7.273438 -32.203125 6.859375 -33.148438 6.859375 -34.265625 C 6.859375 -35.578125 7.328125 -36.671875 8.265625 -37.546875 C 9.203125 -38.421875 10.429688 -38.859375 11.953125 -38.859375 C 13.296875 -38.859375 14.382812 -38.488281 15.21875 -37.75 C 16.0625 -37.007812 16.484375 -36.09375 16.484375 -35 C 16.484375 -33.59375 16.003906 -32.453125 15.046875 -31.578125 C 14.097656 -30.703125 12.867188 -30.265625 11.359375 -30.265625 Z M 11.359375 -30.265625 "/></g></g></g><g fill="#000000" fill-opacity="1"><g transform="translate(136.84963, 47.536721)"><g><path d="M 11.40625 -9.375 C 11.34375 -9.113281 11.3125 -8.753906 11.3125 -8.296875 C 11.3125 -6.585938 12.25 -5.734375 14.125 -5.734375 C 15.144531 -5.734375 16.179688 -6.046875 17.234375 -6.671875 L 18.375 -1.1875 C 16.65625 -0.132812 14.445312 0.390625 11.75 0.390625 C 9.25 0.390625 7.238281 -0.265625 5.71875 -1.578125 C 4.207031 -2.898438 3.453125 -4.710938 3.453125 -7.015625 C 3.453125 -7.671875 3.535156 -8.441406 3.703125 -9.328125 L 5.828125 -20.046875 L 1.734375 -20.046875 L 2.90625 -25.96875 L 7.015625 -25.96875 L 8.296875 -32.4375 L 16 -32.4375 L 14.71875 -25.96875 L 21.328125 -25.96875 L 20.140625 -20.046875 L 13.53125 -20.046875 Z M 11.40625 -9.375 "/></g></g></g><g fill="#000000" fill-opacity="1"><g transform="translate(158.325726, 47.536721)"><g><path d="M 32.984375 -26.5625 L 27.703125 0 L 20.390625 0 L 20.9375 -2.859375 C 19.78125 -1.773438 18.460938 -0.960938 16.984375 -0.421875 C 15.503906 0.117188 13.941406 0.390625 12.296875 0.390625 C 9.398438 0.390625 7.085938 -0.394531 5.359375 -1.96875 C 3.628906 -3.550781 2.765625 -5.773438 2.765625 -8.640625 C 2.765625 -9.722656 2.878906 -10.789062 3.109375 -11.84375 L 6.03125 -26.5625 L 13.71875 -26.5625 L 10.90625 -12.34375 C 10.78125 -11.71875 10.71875 -11.078125 10.71875 -10.421875 C 10.71875 -7.648438 12.195312 -6.265625 15.15625 -6.265625 C 17.101562 -6.265625 18.707031 -6.832031 19.96875 -7.96875 C 21.238281 -9.101562 22.101562 -10.804688 22.5625 -13.078125 L 25.28125 -26.5625 Z M 32.984375 -26.5625 "/></g></g></g><g fill="#000000" fill-opacity="1"><g transform="translate(192.243158, 47.536721)"><g><path d="M 12.890625 -23.40625 C 14.035156 -24.65625 15.421875 -25.554688 17.046875 -26.109375 C 18.679688 -26.671875 20.601562 -26.953125 22.8125 -26.953125 L 21.421875 -19.84375 C 20.503906 -19.914062 19.914062 -19.953125 19.65625 -19.953125 C 17.3125 -19.953125 15.441406 -19.375 14.046875 -18.21875 C 12.648438 -17.0625 11.703125 -15.269531 11.203125 -12.84375 L 8.640625 0 L 0.9375 0 L 6.21875 -26.5625 L 13.53125 -26.5625 Z M 12.890625 -23.40625 "/></g></g></g><g fill="#000000" fill-opacity="1"><g transform="translate(213.077398, 47.536721)"><g><path d="M 29.765625 -15.25 C 29.765625 -14.039062 29.617188 -12.691406 29.328125 -11.203125 L 8.984375 -11.203125 C 9.242188 -7.585938 11.53125 -5.78125 15.84375 -5.78125 C 17.195312 -5.78125 18.488281 -5.992188 19.71875 -6.421875 C 20.957031 -6.847656 22.035156 -7.457031 22.953125 -8.25 L 26.171875 -3.15625 C 24.691406 -1.96875 22.992188 -1.078125 21.078125 -0.484375 C 19.171875 0.0976562 17.164062 0.390625 15.0625 0.390625 C 12.332031 0.390625 9.9375 -0.09375 7.875 -1.0625 C 5.820312 -2.03125 4.242188 -3.421875 3.140625 -5.234375 C 2.035156 -7.046875 1.484375 -9.132812 1.484375 -11.5 C 1.484375 -14.4375 2.148438 -17.078125 3.484375 -19.421875 C 4.816406 -21.773438 6.664062 -23.617188 9.03125 -24.953125 C 11.40625 -26.285156 14.109375 -26.953125 17.140625 -26.953125 C 19.703125 -26.953125 21.925781 -26.472656 23.8125 -25.515625 C 25.707031 -24.566406 27.171875 -23.203125 28.203125 -21.421875 C 29.242188 -19.648438 29.765625 -17.59375 29.765625 -15.25 Z M 16.78125 -21.1875 C 14.976562 -21.1875 13.445312 -20.695312 12.1875 -19.71875 C 10.9375 -18.75 10.050781 -17.410156 9.53125 -15.703125 L 22.71875 -15.703125 C 22.71875 -17.410156 22.179688 -18.75 21.109375 -19.71875 C 20.035156 -20.695312 18.59375 -21.1875 16.78125 -21.1875 Z M 16.78125 -21.1875 "/></g></g></g></g></g></g></g></g></svg>